<svg xmlns="http://www.w3.org/2000/svg" width="43.439" height="42.366" viewBox="0 0 40.723749 39.71858"><path d="M20.36 0C9.117 0 0 9.116 0 20.363c0 8.995 5.834 16.627 13.925 19.32 1.02.187 1.39-.442 1.39-.982 0-.48-.018-1.76-.028-3.46-5.663 1.23-6.858-2.73-6.858-2.73-.93-2.352-2.264-2.98-2.264-2.98-1.85-1.26.14-1.235.14-1.235 2.043.143 3.118 2.098 3.118 2.098 1.816 3.113 4.766 2.214 5.926 1.693.186-1.315.713-2.213 1.294-2.722-4.52-.514-9.275-2.26-9.275-10.062 0-2.223.792-4.04 2.094-5.463-.21-.516-.91-2.586.2-5.39 0 0 1.71-.548 5.6 2.086a19.555 19.555 0 0 1 5.096-.684c1.73.01 3.473.234 5.1.685 3.887-2.633 5.593-2.085 5.593-2.085 1.11 2.804.412 4.874.204 5.39 1.305 1.422 2.092 3.24 2.092 5.462 0 7.823-4.76 9.544-9.298 10.048.73.63 1.38 1.87 1.38 3.77 0 2.722-.024 4.92-.024 5.586 0 .546.366 1.18 1.4.98C34.892 36.99 40.72 29.364 40.72 20.37 40.724 9.116 31.607 0 20.36 0" fill="#fff" fill-rule="evenodd"/></svg>