<svg xmlns="http://www.w3.org/2000/svg" width="180.002" height="180" viewBox="0 0 180.00251 180"><path d="M153.382 153.384h-26.68V111.61c0-9.966-.182-22.78-13.872-22.78-13.894 0-16.02 10.854-16.02 22.06v42.494H70.13v-85.9h25.61V79.22h.356c3.562-6.755 12.272-13.876 25.26-13.876 27.035 0 32.027 17.792 32.027 40.92v47.12zM40.042 55.74c-8.556 0-15.482-6.94-15.482-15.484 0-8.537 6.926-15.475 15.483-15.475 8.535 0 15.47 6.94 15.47 15.477 0 8.545-6.935 15.484-15.47 15.484zm13.344 97.644h-26.7v-85.9h26.7v85.9zM166.68 0H13.285C5.955 0 0 5.81 0 12.974V167.01C0 174.18 5.956 180 13.286 180H166.68c7.34 0 13.323-5.82 13.323-12.99V12.975C180.003 5.81 174.02 0 166.678 0" fill="#fff"/></svg>